<?xml version="1.0" standalone="no"?>
<!DOCTYPE svg PUBLIC "-//W3C//DTD SVG 20010904//EN"
 "http://www.w3.org/TR/2001/REC-SVG-20010904/DTD/svg10.dtd">
<svg version="1.0" xmlns="http://www.w3.org/2000/svg"
 width="150.000000pt" height="150.000000pt" viewBox="0 0 150.000000 150.000000"
 preserveAspectRatio="xMidYMid meet">

<g transform="translate(0.000000,150.000000) scale(0.100000,-0.100000)"
fill="#000000" stroke="none">
<path d="M650 1200 c0 -36 -2 -40 -25 -40 -21 0 -25 -5 -25 -30 l0 -30 -61 0
c-52 0 -60 2 -57 18 2 12 14 18 41 20 l38 3 -3 42 -3 42 -45 0 c-43 0 -45 -1
-48 -31 -3 -28 -8 -33 -37 -38 -50 -10 -90 -48 -105 -99 -7 -27 -10 -88 -8
-160 5 -182 15 -189 333 -242 234 -39 245 -44 245 -98 0 -63 -9 -67 -140 -67
l-120 0 0 -55 0 -56 -77 3 c-70 3 -78 5 -78 23 0 17 8 20 48 23 l47 3 0 55 0
54 -59 0 c-54 0 -60 -2 -63 -22 -3 -21 -9 -23 -70 -26 l-68 -3 0 -114 0 -115
318 0 c186 0 332 4 354 10 46 13 94 60 103 99 6 28 10 30 57 33 l51 3 0 50 0
50 -62 3 c-56 3 -61 1 -61 -18 0 -16 -6 -20 -30 -20 l-30 0 0 60 0 60 46 0
c44 0 45 1 42 28 -3 26 -5 27 -70 30 l-67 3 -3 62 -3 61 -210 41 c-116 22
-216 44 -223 48 -21 14 -15 85 8 97 12 7 86 9 197 8 l178 -3 3 -57 3 -58 89
45 89 45 3 52 3 53 48 3 47 3 0 80 0 79 -85 0 -85 0 0 -75 0 -75 -40 0 -40 0
0 50 0 50 -65 0 -65 0 0 -40 0 -41 -72 3 c-70 3 -73 4 -73 28 0 22 5 25 43 28
l42 3 0 50 0 49 -50 0 -50 0 0 -40z"/>
<path d="M1017 783 c-4 -3 -7 -24 -7 -45 l0 -38 55 0 55 0 0 45 0 45 -48 0
c-27 0 -52 -3 -55 -7z"/>
</g>
</svg>
